<?xml version="1.0" encoding="utf-8" standalone="no"?>
<!DOCTYPE svg PUBLIC "-//W3C//DTD SVG 1.1//EN"
  "http://www.w3.org/Graphics/SVG/1.1/DTD/svg11.dtd">
<!-- Created with matplotlib (http://matplotlib.org/) -->
<svg height="216pt" version="1.1" viewBox="0 0 216 216" width="216pt" xmlns="http://www.w3.org/2000/svg" xmlns:xlink="http://www.w3.org/1999/xlink">
 <defs>
  <style type="text/css">
*{stroke-linecap:butt;stroke-linejoin:round;}
  </style>
 </defs>
 <g id="figure_1">
  <g id="patch_1">
   <path d="M 0 216 
L 216 216 
L 216 0 
L 0 0 
z
" style="fill:#ffffff;"/>
  </g>
  <g id="axes_1">
   <g id="patch_2">
    <path d="M 16.2 90.626087 
L 97.2 90.626087 
L 97.2 10.8 
L 16.2 10.8 
z
" style="fill:#ffffff;"/>
   </g>
   <g id="matplotlib.axis_1">
    <g id="xtick_1">
     <g id="line2d_1">
      <defs>
       <path d="M 0 0 
L 0 -4 
" id="ma42970f5bb" style="stroke:#000000;stroke-width:0.5;"/>
      </defs>
      <g>
       <use style="stroke:#000000;stroke-width:0.5;" x="56.780528" xlink:href="#ma42970f5bb" y="90.626087"/>
      </g>
     </g>
     <g id="line2d_2">
      <defs>
       <path d="M 0 0 
L 0 4 
" id="me9add61087" style="stroke:#000000;stroke-width:0.5;"/>
      </defs>
      <g>
       <use style="stroke:#000000;stroke-width:0.5;" x="56.780528" xlink:href="#me9add61087" y="10.8"/>
      </g>
     </g>
     <g id="text_1">
      <!-- $\mathdefault{10^{0}}$ -->
      <defs>
       <path d="M 37.25 0 
L 28.46875 0 
L 28.46875 56 
Q 25.296875 52.984375 20.140625 49.953125 
Q 14.984375 46.921875 10.890625 45.40625 
L 10.890625 53.90625 
Q 18.265625 57.375 23.78125 62.296875 
Q 29.296875 67.234375 31.59375 71.875 
L 37.25 71.875 
z
" id="ArialMT-31"/>
       <path d="M 4.15625 35.296875 
Q 4.15625 48 6.765625 55.734375 
Q 9.375 63.484375 14.515625 67.671875 
Q 19.671875 71.875 27.484375 71.875 
Q 33.25 71.875 37.59375 69.546875 
Q 41.9375 67.234375 44.765625 62.859375 
Q 47.609375 58.5 49.21875 52.21875 
Q 50.828125 45.953125 50.828125 35.296875 
Q 50.828125 22.703125 48.234375 14.96875 
Q 45.65625 7.234375 40.5 3 
Q 35.359375 -1.21875 27.484375 -1.21875 
Q 17.140625 -1.21875 11.234375 6.203125 
Q 4.15625 15.140625 4.15625 35.296875 
z
M 13.1875 35.296875 
Q 13.1875 17.671875 17.3125 11.828125 
Q 21.4375 6 27.484375 6 
Q 33.546875 6 37.671875 11.859375 
Q 41.796875 17.71875 41.796875 35.296875 
Q 41.796875 52.984375 37.671875 58.78125 
Q 33.546875 64.59375 27.390625 64.59375 
Q 21.34375 64.59375 17.71875 59.46875 
Q 13.1875 52.9375 13.1875 35.296875 
z
" id="ArialMT-30"/>
      </defs>
      <g transform="translate(48.930528 104.938587)scale(0.1 -0.1)">
       <use transform="translate(0 0.99375)" xlink:href="#ArialMT-31"/>
       <use transform="translate(55.615234 0.99375)" xlink:href="#ArialMT-30"/>
       <use transform="translate(112.972813 70.6875)scale(0.7)" xlink:href="#ArialMT-30"/>
      </g>
     </g>
    </g>
   </g>
   <g id="matplotlib.axis_2">
    <g id="ytick_1">
     <g id="line2d_3">
      <defs>
       <path d="M 0 0 
L 4 0 
" id="m6f56c061e2" style="stroke:#000000;stroke-width:0.5;"/>
      </defs>
      <g>
       <use style="stroke:#000000;stroke-width:0.5;" x="16.2" xlink:href="#m6f56c061e2" y="87.00127"/>
      </g>
     </g>
     <g id="line2d_4">
      <defs>
       <path d="M 0 0 
L -4 0 
" id="m24d1490d90" style="stroke:#000000;stroke-width:0.5;"/>
      </defs>
      <g>
       <use style="stroke:#000000;stroke-width:0.5;" x="97.2" xlink:href="#m24d1490d90" y="87.00127"/>
      </g>
     </g>
     <g id="text_2">
      <!-- 0 -->
      <g transform="translate(6.639062 90.580176)scale(0.1 -0.1)">
       <use xlink:href="#ArialMT-30"/>
      </g>
     </g>
    </g>
    <g id="ytick_2">
     <g id="line2d_5">
      <g>
       <use style="stroke:#000000;stroke-width:0.5;" x="16.2" xlink:href="#m6f56c061e2" y="50.588092"/>
      </g>
     </g>
     <g id="line2d_6">
      <g>
       <use style="stroke:#000000;stroke-width:0.5;" x="97.2" xlink:href="#m24d1490d90" y="50.588092"/>
      </g>
     </g>
     <g id="text_3">
      <!-- 10000 -->
      <g transform="translate(-15.604688 54.166999)scale(0.1 -0.1)">
       <use xlink:href="#ArialMT-31"/>
       <use x="55.615234" xlink:href="#ArialMT-30"/>
       <use x="111.230469" xlink:href="#ArialMT-30"/>
       <use x="166.845703" xlink:href="#ArialMT-30"/>
       <use x="222.460938" xlink:href="#ArialMT-30"/>
      </g>
     </g>
    </g>
    <g id="ytick_3">
     <g id="line2d_7">
      <g>
       <use style="stroke:#000000;stroke-width:0.5;" x="16.2" xlink:href="#m6f56c061e2" y="14.174915"/>
      </g>
     </g>
     <g id="line2d_8">
      <g>
       <use style="stroke:#000000;stroke-width:0.5;" x="97.2" xlink:href="#m24d1490d90" y="14.174915"/>
      </g>
     </g>
     <g id="text_4">
      <!-- 20000 -->
      <defs>
       <path d="M 50.34375 8.453125 
L 50.34375 0 
L 3.03125 0 
Q 2.9375 3.171875 4.046875 6.109375 
Q 5.859375 10.9375 9.828125 15.625 
Q 13.8125 20.3125 21.34375 26.46875 
Q 33.015625 36.03125 37.109375 41.625 
Q 41.21875 47.21875 41.21875 52.203125 
Q 41.21875 57.421875 37.46875 61 
Q 33.734375 64.59375 27.734375 64.59375 
Q 21.390625 64.59375 17.578125 60.78125 
Q 13.765625 56.984375 13.71875 50.25 
L 4.6875 51.171875 
Q 5.609375 61.28125 11.65625 66.578125 
Q 17.71875 71.875 27.9375 71.875 
Q 38.234375 71.875 44.234375 66.15625 
Q 50.25 60.453125 50.25 52 
Q 50.25 47.703125 48.484375 43.546875 
Q 46.734375 39.40625 42.65625 34.8125 
Q 38.578125 30.21875 29.109375 22.21875 
Q 21.1875 15.578125 18.9375 13.203125 
Q 16.703125 10.84375 15.234375 8.453125 
z
" id="ArialMT-32"/>
      </defs>
      <g transform="translate(-15.604688 17.753821)scale(0.1 -0.1)">
       <use xlink:href="#ArialMT-32"/>
       <use x="55.615234" xlink:href="#ArialMT-30"/>
       <use x="111.230469" xlink:href="#ArialMT-30"/>
       <use x="166.845703" xlink:href="#ArialMT-30"/>
       <use x="222.460938" xlink:href="#ArialMT-30"/>
      </g>
     </g>
    </g>
   </g>
   <g id="line2d_9">
    <path clip-path="url(#p2e822e1fac)" d="M 19.881818 86.997245 
L 30.989437 86.996822 
L 37.486977 86.996355 
L 42.097055 86.995838 
L 45.672909 86.995266 
L 48.594595 86.994635 
L 51.064845 86.993937 
L 53.204673 86.993166 
L 55.092135 86.992314 
L 56.780528 86.991372 
L 58.307865 86.990331 
L 59.702214 86.98918 
L 60.984891 86.987909 
L 62.172464 86.986504 
L 63.278068 86.984951 
L 64.312292 86.983234 
L 65.283796 86.981337 
L 66.199754 86.979241 
L 67.066176 86.976924 
L 67.888146 86.974364 
L 68.670004 86.971534 
L 69.415483 86.968407 
L 70.127818 86.964951 
L 70.809832 86.961131 
L 71.464001 86.956909 
L 72.092509 86.952244 
L 72.697294 86.947088 
L 73.280082 86.94139 
L 73.842417 86.935092 
L 74.385686 86.928132 
L 74.91114 86.92044 
L 75.41991 86.911939 
L 75.913023 86.902544 
L 76.391414 86.892161 
L 76.855937 86.880686 
L 77.307372 86.868004 
L 77.746438 86.853988 
L 78.173794 86.838499 
L 78.590049 86.82138 
L 78.995765 86.802461 
L 79.391461 86.781552 
L 79.777622 86.758444 
L 80.154696 86.732905 
L 80.523101 86.704681 
L 80.883227 86.673489 
L 81.235437 86.639016 
L 81.580072 86.600917 
L 81.91745 86.558812 
L 82.247873 86.512278 
L 82.571619 86.46085 
L 82.888954 86.404014 
L 83.200127 86.3412 
L 83.505373 86.27178 
L 83.804913 86.195059 
L 84.098956 86.110269 
L 84.387701 86.016561 
L 84.671335 85.912999 
L 84.950036 85.798544 
L 85.223972 85.672052 
L 85.493305 85.532257 
L 85.758185 85.37776 
L 86.018759 85.207014 
L 86.275163 85.01831 
L 86.527529 84.809761 
L 86.775982 84.579278 
L 87.020642 84.324555 
L 87.261622 84.043042 
L 87.499033 83.731923 
L 87.732977 83.388082 
L 87.963555 83.00808 
L 88.190863 82.588113 
L 88.414991 82.123977 
L 88.636027 81.611027 
L 88.854057 81.044131 
L 89.069159 80.417613 
L 89.281413 79.725204 
L 89.490892 78.959973 
L 89.697668 78.114263 
L 89.901809 77.179608 
L 90.103383 76.146655 
L 90.302453 75.005065 
L 90.49908 73.743413 
L 90.693324 72.349072 
L 90.885241 70.808087 
L 91.074887 69.105035 
L 91.262315 67.222871 
L 91.447576 65.142759 
L 91.63072 62.843879 
L 91.811794 60.303225 
L 91.990845 57.495367 
L 92.167918 54.392204 
L 92.343055 50.962678 
L 92.516299 47.172466 
L 92.68769 42.983635 
L 92.857267 38.35426 
L 93.025069 33.238009 
L 93.191132 27.583677 
L 93.355491 21.334675 
L 93.518182 14.428458 
" style="fill:none;stroke:#000000;stroke-linecap:square;stroke-width:1.5;"/>
   </g>
   <g id="patch_3">
    <path d="M 16.2 90.626087 
L 16.2 10.8 
" style="fill:none;stroke:#000000;stroke-linecap:square;stroke-linejoin:miter;stroke-width:0.8;"/>
   </g>
   <g id="patch_4">
    <path d="M 97.2 90.626087 
L 97.2 10.8 
" style="fill:none;stroke:#000000;stroke-linecap:square;stroke-linejoin:miter;stroke-width:0.8;"/>
   </g>
   <g id="patch_5">
    <path d="M 16.2 90.626087 
L 97.2 90.626087 
" style="fill:none;stroke:#000000;stroke-linecap:square;stroke-linejoin:miter;stroke-width:0.8;"/>
   </g>
   <g id="patch_6">
    <path d="M 16.2 10.8 
L 97.2 10.8 
" style="fill:none;stroke:#000000;stroke-linecap:square;stroke-linejoin:miter;stroke-width:0.8;"/>
   </g>
   <g id="text_5">
    <!-- semilogx -->
    <defs>
     <path d="M 3.078125 15.484375 
L 11.765625 16.84375 
Q 12.5 11.625 15.84375 8.84375 
Q 19.1875 6.0625 25.203125 6.0625 
Q 31.25 6.0625 34.171875 8.515625 
Q 37.109375 10.984375 37.109375 14.3125 
Q 37.109375 17.28125 34.515625 19 
Q 32.71875 20.171875 25.53125 21.96875 
Q 15.875 24.421875 12.140625 26.203125 
Q 8.40625 27.984375 6.46875 31.125 
Q 4.546875 34.28125 4.546875 38.09375 
Q 4.546875 41.546875 6.125 44.5 
Q 7.71875 47.46875 10.453125 49.421875 
Q 12.5 50.921875 16.03125 51.96875 
Q 19.578125 53.03125 23.640625 53.03125 
Q 29.734375 53.03125 34.34375 51.265625 
Q 38.96875 49.515625 41.15625 46.5 
Q 43.359375 43.5 44.1875 38.484375 
L 35.59375 37.3125 
Q 35.015625 41.3125 32.203125 43.546875 
Q 29.390625 45.796875 24.265625 45.796875 
Q 18.21875 45.796875 15.625 43.796875 
Q 13.03125 41.796875 13.03125 39.109375 
Q 13.03125 37.40625 14.109375 36.03125 
Q 15.1875 34.625 17.484375 33.6875 
Q 18.796875 33.203125 25.25 31.453125 
Q 34.578125 28.953125 38.25 27.359375 
Q 41.9375 25.78125 44.03125 22.75 
Q 46.140625 19.734375 46.140625 15.234375 
Q 46.140625 10.84375 43.578125 6.953125 
Q 41.015625 3.078125 36.171875 0.953125 
Q 31.34375 -1.171875 25.25 -1.171875 
Q 15.140625 -1.171875 9.84375 3.03125 
Q 4.546875 7.234375 3.078125 15.484375 
z
" id="ArialMT-73"/>
     <path d="M 42.09375 16.703125 
L 51.171875 15.578125 
Q 49.03125 7.625 43.21875 3.21875 
Q 37.40625 -1.171875 28.375 -1.171875 
Q 17 -1.171875 10.328125 5.828125 
Q 3.65625 12.84375 3.65625 25.484375 
Q 3.65625 38.578125 10.390625 45.796875 
Q 17.140625 53.03125 27.875 53.03125 
Q 38.28125 53.03125 44.875 45.953125 
Q 51.46875 38.875 51.46875 26.03125 
Q 51.46875 25.25 51.421875 23.6875 
L 12.75 23.6875 
Q 13.234375 15.140625 17.578125 10.59375 
Q 21.921875 6.0625 28.421875 6.0625 
Q 33.25 6.0625 36.671875 8.59375 
Q 40.09375 11.140625 42.09375 16.703125 
z
M 13.234375 30.90625 
L 42.1875 30.90625 
Q 41.609375 37.453125 38.875 40.71875 
Q 34.671875 45.796875 27.984375 45.796875 
Q 21.921875 45.796875 17.796875 41.75 
Q 13.671875 37.703125 13.234375 30.90625 
z
" id="ArialMT-65"/>
     <path d="M 6.59375 0 
L 6.59375 51.859375 
L 14.453125 51.859375 
L 14.453125 44.578125 
Q 16.890625 48.390625 20.9375 50.703125 
Q 25 53.03125 30.171875 53.03125 
Q 35.9375 53.03125 39.625 50.640625 
Q 43.3125 48.25 44.828125 43.953125 
Q 50.984375 53.03125 60.84375 53.03125 
Q 68.5625 53.03125 72.703125 48.75 
Q 76.859375 44.484375 76.859375 35.59375 
L 76.859375 0 
L 68.109375 0 
L 68.109375 32.671875 
Q 68.109375 37.9375 67.25 40.25 
Q 66.40625 42.578125 64.15625 43.984375 
Q 61.921875 45.40625 58.890625 45.40625 
Q 53.421875 45.40625 49.796875 41.765625 
Q 46.1875 38.140625 46.1875 30.125 
L 46.1875 0 
L 37.40625 0 
L 37.40625 33.6875 
Q 37.40625 39.546875 35.25 42.46875 
Q 33.109375 45.40625 28.21875 45.40625 
Q 24.515625 45.40625 21.359375 43.453125 
Q 18.21875 41.5 16.796875 37.734375 
Q 15.375 33.984375 15.375 26.90625 
L 15.375 0 
z
" id="ArialMT-6d"/>
     <path d="M 6.640625 61.46875 
L 6.640625 71.578125 
L 15.4375 71.578125 
L 15.4375 61.46875 
z
M 6.640625 0 
L 6.640625 51.859375 
L 15.4375 51.859375 
L 15.4375 0 
z
" id="ArialMT-69"/>
     <path d="M 6.390625 0 
L 6.390625 71.578125 
L 15.1875 71.578125 
L 15.1875 0 
z
" id="ArialMT-6c"/>
     <path d="M 3.328125 25.921875 
Q 3.328125 40.328125 11.328125 47.265625 
Q 18.015625 53.03125 27.640625 53.03125 
Q 38.328125 53.03125 45.109375 46.015625 
Q 51.90625 39.015625 51.90625 26.65625 
Q 51.90625 16.65625 48.90625 10.90625 
Q 45.90625 5.171875 40.15625 2 
Q 34.421875 -1.171875 27.640625 -1.171875 
Q 16.75 -1.171875 10.03125 5.8125 
Q 3.328125 12.796875 3.328125 25.921875 
z
M 12.359375 25.921875 
Q 12.359375 15.96875 16.703125 11.015625 
Q 21.046875 6.0625 27.640625 6.0625 
Q 34.1875 6.0625 38.53125 11.03125 
Q 42.875 16.015625 42.875 26.21875 
Q 42.875 35.84375 38.5 40.796875 
Q 34.125 45.75 27.640625 45.75 
Q 21.046875 45.75 16.703125 40.8125 
Q 12.359375 35.890625 12.359375 25.921875 
z
" id="ArialMT-6f"/>
     <path d="M 4.984375 -4.296875 
L 13.53125 -5.5625 
Q 14.0625 -9.515625 16.5 -11.328125 
Q 19.78125 -13.765625 25.4375 -13.765625 
Q 31.546875 -13.765625 34.859375 -11.328125 
Q 38.1875 -8.890625 39.359375 -4.5 
Q 40.046875 -1.8125 39.984375 6.78125 
Q 34.234375 0 25.640625 0 
Q 14.9375 0 9.078125 7.71875 
Q 3.21875 15.4375 3.21875 26.21875 
Q 3.21875 33.640625 5.90625 39.90625 
Q 8.59375 46.1875 13.6875 49.609375 
Q 18.796875 53.03125 25.6875 53.03125 
Q 34.859375 53.03125 40.828125 45.609375 
L 40.828125 51.859375 
L 48.921875 51.859375 
L 48.921875 7.03125 
Q 48.921875 -5.078125 46.453125 -10.125 
Q 44 -15.1875 38.640625 -18.109375 
Q 33.296875 -21.046875 25.484375 -21.046875 
Q 16.21875 -21.046875 10.5 -16.875 
Q 4.78125 -12.703125 4.984375 -4.296875 
z
M 12.25 26.859375 
Q 12.25 16.65625 16.296875 11.96875 
Q 20.359375 7.28125 26.46875 7.28125 
Q 32.515625 7.28125 36.609375 11.9375 
Q 40.71875 16.609375 40.71875 26.5625 
Q 40.71875 36.078125 36.5 40.90625 
Q 32.28125 45.75 26.3125 45.75 
Q 20.453125 45.75 16.34375 40.984375 
Q 12.25 36.234375 12.25 26.859375 
z
" id="ArialMT-67"/>
     <path d="M 0.734375 0 
L 19.671875 26.953125 
L 2.15625 51.859375 
L 13.140625 51.859375 
L 21.09375 39.703125 
Q 23.34375 36.234375 24.703125 33.890625 
Q 26.859375 37.109375 28.65625 39.59375 
L 37.40625 51.859375 
L 47.90625 51.859375 
L 29.984375 27.4375 
L 49.265625 0 
L 38.484375 0 
L 27.828125 16.109375 
L 25 20.453125 
L 11.375 0 
z
" id="ArialMT-78"/>
    </defs>
    <g transform="translate(33.02625 4.8)scale(0.12 -0.12)">
     <use xlink:href="#ArialMT-73"/>
     <use x="50" xlink:href="#ArialMT-65"/>
     <use x="105.615234" xlink:href="#ArialMT-6d"/>
     <use x="188.916016" xlink:href="#ArialMT-69"/>
     <use x="211.132812" xlink:href="#ArialMT-6c"/>
     <use x="233.349609" xlink:href="#ArialMT-6f"/>
     <use x="288.964844" xlink:href="#ArialMT-67"/>
     <use x="344.580078" xlink:href="#ArialMT-78"/>
    </g>
   </g>
  </g>
  <g id="axes_2">
   <g id="patch_7">
    <path d="M 129.6 90.626087 
L 210.6 90.626087 
L 210.6 10.8 
L 129.6 10.8 
z
" style="fill:#ffffff;"/>
   </g>
   <g id="matplotlib.axis_3">
    <g id="xtick_2">
     <g id="line2d_10">
      <g>
       <use style="stroke:#000000;stroke-width:0.5;" x="133.281818" xlink:href="#ma42970f5bb" y="90.626087"/>
      </g>
     </g>
     <g id="line2d_11">
      <g>
       <use style="stroke:#000000;stroke-width:0.5;" x="133.281818" xlink:href="#me9add61087" y="10.8"/>
      </g>
     </g>
     <g id="text_6">
      <!-- 0 -->
      <g transform="translate(130.501349 101.783899)scale(0.1 -0.1)">
       <use xlink:href="#ArialMT-30"/>
      </g>
     </g>
    </g>
    <g id="xtick_3">
     <g id="line2d_12">
      <g>
       <use style="stroke:#000000;stroke-width:0.5;" x="207.661983" xlink:href="#ma42970f5bb" y="90.626087"/>
      </g>
     </g>
     <g id="line2d_13">
      <g>
       <use style="stroke:#000000;stroke-width:0.5;" x="207.661983" xlink:href="#me9add61087" y="10.8"/>
      </g>
     </g>
     <g id="text_7">
      <!-- 10 -->
      <g transform="translate(202.101046 101.783899)scale(0.1 -0.1)">
       <use xlink:href="#ArialMT-31"/>
       <use x="55.615234" xlink:href="#ArialMT-30"/>
      </g>
     </g>
    </g>
   </g>
   <g id="matplotlib.axis_4">
    <g id="ytick_4">
     <g id="line2d_14">
      <g>
       <use style="stroke:#000000;stroke-width:0.5;" x="129.6" xlink:href="#m6f56c061e2" y="70.119175"/>
      </g>
     </g>
     <g id="line2d_15">
      <g>
       <use style="stroke:#000000;stroke-width:0.5;" x="210.6" xlink:href="#m24d1490d90" y="70.119175"/>
      </g>
     </g>
     <g id="text_8">
      <!-- $\mathdefault{10^{1}}$ -->
      <g transform="translate(109.9 75.275425)scale(0.1 -0.1)">
       <use transform="translate(0 0.99375)" xlink:href="#ArialMT-31"/>
       <use transform="translate(55.615234 0.99375)" xlink:href="#ArialMT-30"/>
       <use transform="translate(112.972813 70.6875)scale(0.7)" xlink:href="#ArialMT-31"/>
      </g>
     </g>
    </g>
    <g id="ytick_5">
     <g id="line2d_16">
      <g>
       <use style="stroke:#000000;stroke-width:0.5;" x="129.6" xlink:href="#m6f56c061e2" y="36.362268"/>
      </g>
     </g>
     <g id="line2d_17">
      <g>
       <use style="stroke:#000000;stroke-width:0.5;" x="210.6" xlink:href="#m24d1490d90" y="36.362268"/>
      </g>
     </g>
     <g id="text_9">
      <!-- $\mathdefault{10^{3}}$ -->
      <defs>
       <path d="M 4.203125 18.890625 
L 12.984375 20.0625 
Q 14.5 12.59375 18.140625 9.296875 
Q 21.78125 6 27 6 
Q 33.203125 6 37.46875 10.296875 
Q 41.75 14.59375 41.75 20.953125 
Q 41.75 27 37.796875 30.921875 
Q 33.84375 34.859375 27.734375 34.859375 
Q 25.25 34.859375 21.53125 33.890625 
L 22.515625 41.609375 
Q 23.390625 41.5 23.921875 41.5 
Q 29.546875 41.5 34.03125 44.421875 
Q 38.53125 47.359375 38.53125 53.46875 
Q 38.53125 58.296875 35.25 61.46875 
Q 31.984375 64.65625 26.8125 64.65625 
Q 21.6875 64.65625 18.265625 61.421875 
Q 14.84375 58.203125 13.875 51.765625 
L 5.078125 53.328125 
Q 6.6875 62.15625 12.390625 67.015625 
Q 18.109375 71.875 26.609375 71.875 
Q 32.46875 71.875 37.390625 69.359375 
Q 42.328125 66.84375 44.9375 62.5 
Q 47.5625 58.15625 47.5625 53.265625 
Q 47.5625 48.640625 45.0625 44.828125 
Q 42.578125 41.015625 37.703125 38.765625 
Q 44.046875 37.3125 47.5625 32.6875 
Q 51.078125 28.078125 51.078125 21.140625 
Q 51.078125 11.765625 44.234375 5.25 
Q 37.40625 -1.265625 26.953125 -1.265625 
Q 17.53125 -1.265625 11.296875 4.34375 
Q 5.078125 9.96875 4.203125 18.890625 
z
" id="ArialMT-33"/>
      </defs>
      <g transform="translate(109.9 41.518518)scale(0.1 -0.1)">
       <use transform="translate(0 0.99375)" xlink:href="#ArialMT-31"/>
       <use transform="translate(55.615234 0.99375)" xlink:href="#ArialMT-30"/>
       <use transform="translate(112.972813 70.6875)scale(0.7)" xlink:href="#ArialMT-33"/>
      </g>
     </g>
    </g>
   </g>
   <g id="line2d_18">
    <path clip-path="url(#p688b2a0bcc)" d="M 133.281818 86.997628 
L 134.02562 86.264607 
L 134.769421 85.531585 
L 135.513223 84.798563 
L 136.257025 84.065541 
L 137.000826 83.332519 
L 137.744628 82.599497 
L 138.48843 81.866475 
L 139.232231 81.133453 
L 139.976033 80.400431 
L 140.719835 79.667409 
L 141.463636 78.934387 
L 142.207438 78.201365 
L 142.95124 77.468344 
L 143.695041 76.735322 
L 144.438843 76.0023 
L 145.182645 75.269278 
L 145.926446 74.536256 
L 146.670248 73.803234 
L 147.41405 73.070212 
L 148.157851 72.33719 
L 148.901653 71.604168 
L 149.645455 70.871146 
L 150.389256 70.138124 
L 151.133058 69.405102 
L 151.87686 68.67208 
L 152.620661 67.939059 
L 153.364463 67.206037 
L 154.108264 66.473015 
L 154.852066 65.739993 
L 155.595868 65.006971 
L 156.339669 64.273949 
L 157.083471 63.540927 
L 157.827273 62.807905 
L 158.571074 62.074883 
L 159.314876 61.341861 
L 160.058678 60.608839 
L 160.802479 59.875817 
L 161.546281 59.142796 
L 162.290083 58.409774 
L 163.033884 57.676752 
L 163.777686 56.94373 
L 164.521488 56.210708 
L 165.265289 55.477686 
L 166.009091 54.744664 
L 166.752893 54.011642 
L 167.496694 53.27862 
L 168.240496 52.545598 
L 168.984298 51.812576 
L 169.728099 51.079554 
L 170.471901 50.346533 
L 171.215702 49.613511 
L 171.959504 48.880489 
L 172.703306 48.147467 
L 173.447107 47.414445 
L 174.190909 46.681423 
L 174.934711 45.948401 
L 175.678512 45.215379 
L 176.422314 44.482357 
L 177.166116 43.749335 
L 177.909917 43.016313 
L 178.653719 42.283291 
L 179.397521 41.550269 
L 180.141322 40.817248 
L 180.885124 40.084226 
L 181.628926 39.351204 
L 182.372727 38.618182 
L 183.116529 37.88516 
L 183.860331 37.152138 
L 184.604132 36.419116 
L 185.347934 35.686094 
L 186.091736 34.953072 
L 186.835537 34.22005 
L 187.579339 33.487028 
L 188.32314 32.754006 
L 189.066942 32.020985 
L 189.810744 31.287963 
L 190.554545 30.554941 
L 191.298347 29.821919 
L 192.042149 29.088897 
L 192.78595 28.355875 
L 193.529752 27.622853 
L 194.273554 26.889831 
L 195.017355 26.156809 
L 195.761157 25.423787 
L 196.504959 24.690765 
L 197.24876 23.957743 
L 197.992562 23.224722 
L 198.736364 22.4917 
L 199.480165 21.758678 
L 200.223967 21.025656 
L 200.967769 20.292634 
L 201.71157 19.559612 
L 202.455372 18.82659 
L 203.199174 18.093568 
L 203.942975 17.360546 
L 204.686777 16.627524 
L 205.430579 15.894502 
L 206.17438 15.16148 
L 206.918182 14.428458 
" style="fill:none;stroke:#000000;stroke-linecap:square;stroke-width:1.5;"/>
   </g>
   <g id="patch_8">
    <path d="M 129.6 90.626087 
L 129.6 10.8 
" style="fill:none;stroke:#000000;stroke-linecap:square;stroke-linejoin:miter;stroke-width:0.8;"/>
   </g>
   <g id="patch_9">
    <path d="M 210.6 90.626087 
L 210.6 10.8 
" style="fill:none;stroke:#000000;stroke-linecap:square;stroke-linejoin:miter;stroke-width:0.8;"/>
   </g>
   <g id="patch_10">
    <path d="M 129.6 90.626087 
L 210.6 90.626087 
" style="fill:none;stroke:#000000;stroke-linecap:square;stroke-linejoin:miter;stroke-width:0.8;"/>
   </g>
   <g id="patch_11">
    <path d="M 129.6 10.8 
L 210.6 10.8 
" style="fill:none;stroke:#000000;stroke-linecap:square;stroke-linejoin:miter;stroke-width:0.8;"/>
   </g>
   <g id="text_10">
    <!-- semilogy -->
    <defs>
     <path d="M 6.203125 -19.96875 
L 5.21875 -11.71875 
Q 8.109375 -12.5 10.25 -12.5 
Q 13.1875 -12.5 14.9375 -11.515625 
Q 16.703125 -10.546875 17.828125 -8.796875 
Q 18.65625 -7.46875 20.515625 -2.25 
Q 20.75 -1.515625 21.296875 -0.09375 
L 1.609375 51.859375 
L 11.078125 51.859375 
L 21.875 21.828125 
Q 23.96875 16.109375 25.640625 9.8125 
Q 27.15625 15.875 29.25 21.625 
L 40.328125 51.859375 
L 49.125 51.859375 
L 29.390625 -0.875 
Q 26.21875 -9.421875 24.46875 -12.640625 
Q 22.125 -17 19.09375 -19.015625 
Q 16.0625 -21.046875 11.859375 -21.046875 
Q 9.328125 -21.046875 6.203125 -19.96875 
z
" id="ArialMT-79"/>
    </defs>
    <g transform="translate(146.42625 4.8)scale(0.12 -0.12)">
     <use xlink:href="#ArialMT-73"/>
     <use x="50" xlink:href="#ArialMT-65"/>
     <use x="105.615234" xlink:href="#ArialMT-6d"/>
     <use x="188.916016" xlink:href="#ArialMT-69"/>
     <use x="211.132812" xlink:href="#ArialMT-6c"/>
     <use x="233.349609" xlink:href="#ArialMT-6f"/>
     <use x="288.964844" xlink:href="#ArialMT-67"/>
     <use x="344.580078" xlink:href="#ArialMT-79"/>
    </g>
   </g>
  </g>
  <g id="axes_3">
   <g id="patch_12">
    <path d="M 16.2 194.4 
L 97.2 194.4 
L 97.2 114.573913 
L 16.2 114.573913 
z
" style="fill:#ffffff;"/>
   </g>
   <g id="matplotlib.axis_5">
    <g id="xtick_4">
     <g id="line2d_19">
      <g>
       <use style="stroke:#000000;stroke-width:0.5;" x="56.780528" xlink:href="#ma42970f5bb" y="194.4"/>
      </g>
     </g>
     <g id="line2d_20">
      <g>
       <use style="stroke:#000000;stroke-width:0.5;" x="56.780528" xlink:href="#me9add61087" y="114.573913"/>
      </g>
     </g>
     <g id="text_11">
      <!-- $\mathdefault{10^{0}}$ -->
      <g transform="translate(48.930528 208.7125)scale(0.1 -0.1)">
       <use transform="translate(0 0.99375)" xlink:href="#ArialMT-31"/>
       <use transform="translate(55.615234 0.99375)" xlink:href="#ArialMT-30"/>
       <use transform="translate(112.972813 70.6875)scale(0.7)" xlink:href="#ArialMT-30"/>
      </g>
     </g>
    </g>
   </g>
   <g id="matplotlib.axis_6">
    <g id="ytick_6">
     <g id="line2d_21">
      <g>
       <use style="stroke:#000000;stroke-width:0.5;" x="16.2" xlink:href="#m6f56c061e2" y="173.893088"/>
      </g>
     </g>
     <g id="line2d_22">
      <g>
       <use style="stroke:#000000;stroke-width:0.5;" x="97.2" xlink:href="#m24d1490d90" y="173.893088"/>
      </g>
     </g>
     <g id="text_12">
      <!-- $\mathdefault{10^{1}}$ -->
      <g transform="translate(-3.5 179.049338)scale(0.1 -0.1)">
       <use transform="translate(0 0.99375)" xlink:href="#ArialMT-31"/>
       <use transform="translate(55.615234 0.99375)" xlink:href="#ArialMT-30"/>
       <use transform="translate(112.972813 70.6875)scale(0.7)" xlink:href="#ArialMT-31"/>
      </g>
     </g>
    </g>
    <g id="ytick_7">
     <g id="line2d_23">
      <g>
       <use style="stroke:#000000;stroke-width:0.5;" x="16.2" xlink:href="#m6f56c061e2" y="140.136181"/>
      </g>
     </g>
     <g id="line2d_24">
      <g>
       <use style="stroke:#000000;stroke-width:0.5;" x="97.2" xlink:href="#m24d1490d90" y="140.136181"/>
      </g>
     </g>
     <g id="text_13">
      <!-- $\mathdefault{10^{3}}$ -->
      <g transform="translate(-3.5 145.292431)scale(0.1 -0.1)">
       <use transform="translate(0 0.99375)" xlink:href="#ArialMT-31"/>
       <use transform="translate(55.615234 0.99375)" xlink:href="#ArialMT-30"/>
       <use transform="translate(112.972813 70.6875)scale(0.7)" xlink:href="#ArialMT-33"/>
      </g>
     </g>
    </g>
   </g>
   <g id="line2d_25">
    <path clip-path="url(#p924157e620)" d="M 19.881818 190.03852 
L 30.989437 189.305498 
L 37.486977 188.572476 
L 42.097055 187.839454 
L 45.672909 187.106432 
L 48.594595 186.37341 
L 51.064845 185.640388 
L 53.204673 184.907366 
L 55.092135 184.174344 
L 56.780528 183.441322 
L 58.307865 182.7083 
L 59.702214 181.975278 
L 60.984891 181.242257 
L 62.172464 180.509235 
L 63.278068 179.776213 
L 64.312292 179.043191 
L 65.283796 178.310169 
L 66.199754 177.577147 
L 67.066176 176.844125 
L 67.888146 176.111103 
L 68.670004 175.378081 
L 69.415483 174.645059 
L 70.127818 173.912037 
L 70.809832 173.179015 
L 71.464001 172.445994 
L 72.092509 171.712972 
L 72.697294 170.97995 
L 73.280082 170.246928 
L 73.842417 169.513906 
L 74.385686 168.780884 
L 74.91114 168.047862 
L 75.41991 167.31484 
L 75.913023 166.581818 
L 76.391414 165.848796 
L 76.855937 165.115774 
L 77.307372 164.382752 
L 77.746438 163.649731 
L 78.173794 162.916709 
L 78.590049 162.183687 
L 78.995765 161.450665 
L 79.391461 160.717643 
L 79.777622 159.984621 
L 80.154696 159.251599 
L 80.523101 158.518577 
L 80.883227 157.785555 
L 81.235437 157.052533 
L 81.580072 156.319511 
L 81.91745 155.586489 
L 82.247873 154.853467 
L 82.571619 154.120446 
L 82.888954 153.387424 
L 83.200127 152.654402 
L 83.505373 151.92138 
L 83.804913 151.188358 
L 84.098956 150.455336 
L 84.387701 149.722314 
L 84.671335 148.989292 
L 84.950036 148.25627 
L 85.223972 147.523248 
L 85.493305 146.790226 
L 85.758185 146.057204 
L 86.018759 145.324183 
L 86.275163 144.591161 
L 86.527529 143.858139 
L 86.775982 143.125117 
L 87.020642 142.392095 
L 87.261622 141.659073 
L 87.499033 140.926051 
L 87.732977 140.193029 
L 87.963555 139.460007 
L 88.190863 138.726985 
L 88.414991 137.993963 
L 88.636027 137.260941 
L 88.854057 136.52792 
L 89.069159 135.794898 
L 89.281413 135.061876 
L 89.490892 134.328854 
L 89.697668 133.595832 
L 89.901809 132.86281 
L 90.103383 132.129788 
L 90.302453 131.396766 
L 90.49908 130.663744 
L 90.693324 129.930722 
L 90.885241 129.1977 
L 91.074887 128.464678 
L 91.262315 127.731656 
L 91.447576 126.998635 
L 91.63072 126.265613 
L 91.811794 125.532591 
L 91.990845 124.799569 
L 92.167918 124.066547 
L 92.343055 123.333525 
L 92.516299 122.600503 
L 92.68769 121.867481 
L 92.857267 121.134459 
L 93.025069 120.401437 
L 93.191132 119.668415 
L 93.355491 118.935393 
L 93.518182 118.202372 
" style="fill:none;stroke:#000000;stroke-linecap:square;stroke-width:1.5;"/>
   </g>
   <g id="patch_13">
    <path d="M 16.2 194.4 
L 16.2 114.573913 
" style="fill:none;stroke:#000000;stroke-linecap:square;stroke-linejoin:miter;stroke-width:0.8;"/>
   </g>
   <g id="patch_14">
    <path d="M 97.2 194.4 
L 97.2 114.573913 
" style="fill:none;stroke:#000000;stroke-linecap:square;stroke-linejoin:miter;stroke-width:0.8;"/>
   </g>
   <g id="patch_15">
    <path d="M 16.2 194.4 
L 97.2 194.4 
" style="fill:none;stroke:#000000;stroke-linecap:square;stroke-linejoin:miter;stroke-width:0.8;"/>
   </g>
   <g id="patch_16">
    <path d="M 16.2 114.573913 
L 97.2 114.573913 
" style="fill:none;stroke:#000000;stroke-linecap:square;stroke-linejoin:miter;stroke-width:0.8;"/>
   </g>
   <g id="text_14">
    <!-- loglog -->
    <g transform="translate(40.6875 108.573913)scale(0.12 -0.12)">
     <use xlink:href="#ArialMT-6c"/>
     <use x="22.216797" xlink:href="#ArialMT-6f"/>
     <use x="77.832031" xlink:href="#ArialMT-67"/>
     <use x="133.447266" xlink:href="#ArialMT-6c"/>
     <use x="155.664062" xlink:href="#ArialMT-6f"/>
     <use x="211.279297" xlink:href="#ArialMT-67"/>
    </g>
   </g>
  </g>
  <g id="axes_4">
   <g id="patch_17">
    <path d="M 129.6 194.4 
L 210.6 194.4 
L 210.6 114.573913 
L 129.6 114.573913 
z
" style="fill:#ffffff;"/>
   </g>
   <g id="PathCollection_1">
    <defs>
     <path d="M 0 3 
C 0.795609 3 1.55874 2.683901 2.12132 2.12132 
C 2.683901 1.55874 3 0.795609 3 0 
C 3 -0.795609 2.683901 -1.55874 2.12132 -2.12132 
C 1.55874 -2.683901 0.795609 -3 0 -3 
C -0.795609 -3 -1.55874 -2.683901 -2.12132 -2.12132 
C -2.683901 -1.55874 -3 -0.795609 -3 0 
C -3 0.795609 -2.683901 1.55874 -2.12132 2.12132 
C -1.55874 2.683901 -0.795609 3 0 3 
z
" id="m30d0843001" style="stroke:#1f77b4;"/>
    </defs>
    <g clip-path="url(#p22ae807bea)">
     <use style="fill:#1f77b4;stroke:#1f77b4;" x="-1" xlink:href="#m30d0843001" y="189.817567"/>
     <use style="fill:#1f77b4;stroke:#1f77b4;" x="59.645455" xlink:href="#m30d0843001" y="189.815554"/>
     <use style="fill:#1f77b4;stroke:#1f77b4;" x="81.812209" xlink:href="#m30d0843001" y="189.084807"/>
     <use style="fill:#1f77b4;stroke:#1f77b4;" x="94.778929" xlink:href="#m30d0843001" y="188.354061"/>
     <use style="fill:#1f77b4;stroke:#1f77b4;" x="103.978963" xlink:href="#m30d0843001" y="187.623314"/>
     <use style="fill:#1f77b4;stroke:#1f77b4;" x="111.115064" xlink:href="#m30d0843001" y="186.892567"/>
     <use style="fill:#1f77b4;stroke:#1f77b4;" x="116.945683" xlink:href="#m30d0843001" y="186.161821"/>
     <use style="fill:#1f77b4;stroke:#1f77b4;" x="121.875401" xlink:href="#m30d0843001" y="185.431074"/>
     <use style="fill:#1f77b4;stroke:#1f77b4;" x="126.145717" xlink:href="#m30d0843001" y="184.700327"/>
     <use style="fill:#1f77b4;stroke:#1f77b4;" x="129.912403" xlink:href="#m30d0843001" y="183.969581"/>
     <use style="fill:#1f77b4;stroke:#1f77b4;" x="133.281818" xlink:href="#m30d0843001" y="183.238834"/>
     <use style="fill:#1f77b4;stroke:#1f77b4;" x="136.329825" xlink:href="#m30d0843001" y="182.508087"/>
     <use style="fill:#1f77b4;stroke:#1f77b4;" x="139.112437" xlink:href="#m30d0843001" y="181.777341"/>
     <use style="fill:#1f77b4;stroke:#1f77b4;" x="141.672192" xlink:href="#m30d0843001" y="181.046594"/>
     <use style="fill:#1f77b4;stroke:#1f77b4;" x="144.042155" xlink:href="#m30d0843001" y="180.315848"/>
     <use style="fill:#1f77b4;stroke:#1f77b4;" x="146.248538" xlink:href="#m30d0843001" y="179.585101"/>
     <use style="fill:#1f77b4;stroke:#1f77b4;" x="148.312471" xlink:href="#m30d0843001" y="178.854354"/>
     <use style="fill:#1f77b4;stroke:#1f77b4;" x="150.251239" xlink:href="#m30d0843001" y="178.123608"/>
     <use style="fill:#1f77b4;stroke:#1f77b4;" x="152.079157" xlink:href="#m30d0843001" y="177.392861"/>
     <use style="fill:#1f77b4;stroke:#1f77b4;" x="153.80822" xlink:href="#m30d0843001" y="176.662114"/>
     <use style="fill:#1f77b4;stroke:#1f77b4;" x="155.448572" xlink:href="#m30d0843001" y="175.931368"/>
     <use style="fill:#1f77b4;stroke:#1f77b4;" x="157.008875" xlink:href="#m30d0843001" y="175.200621"/>
     <use style="fill:#1f77b4;stroke:#1f77b4;" x="158.496579" xlink:href="#m30d0843001" y="174.469874"/>
     <use style="fill:#1f77b4;stroke:#1f77b4;" x="159.918141" xlink:href="#m30d0843001" y="173.739128"/>
     <use style="fill:#1f77b4;stroke:#1f77b4;" x="161.279191" xlink:href="#m30d0843001" y="173.008381"/>
     <use style="fill:#1f77b4;stroke:#1f77b4;" x="162.584673" xlink:href="#m30d0843001" y="172.277634"/>
     <use style="fill:#1f77b4;stroke:#1f77b4;" x="163.838947" xlink:href="#m30d0843001" y="171.546888"/>
     <use style="fill:#1f77b4;stroke:#1f77b4;" x="165.045877" xlink:href="#m30d0843001" y="170.816141"/>
     <use style="fill:#1f77b4;stroke:#1f77b4;" x="166.20891" xlink:href="#m30d0843001" y="170.085394"/>
     <use style="fill:#1f77b4;stroke:#1f77b4;" x="167.331125" xlink:href="#m30d0843001" y="169.354648"/>
     <use style="fill:#1f77b4;stroke:#1f77b4;" x="168.415292" xlink:href="#m30d0843001" y="168.623901"/>
     <use style="fill:#1f77b4;stroke:#1f77b4;" x="169.463907" xlink:href="#m30d0843001" y="167.893155"/>
     <use style="fill:#1f77b4;stroke:#1f77b4;" x="170.479226" xlink:href="#m30d0843001" y="167.162408"/>
     <use style="fill:#1f77b4;stroke:#1f77b4;" x="171.463299" xlink:href="#m30d0843001" y="166.431661"/>
     <use style="fill:#1f77b4;stroke:#1f77b4;" x="172.417993" xlink:href="#m30d0843001" y="165.700915"/>
     <use style="fill:#1f77b4;stroke:#1f77b4;" x="173.345011" xlink:href="#m30d0843001" y="164.970168"/>
     <use style="fill:#1f77b4;stroke:#1f77b4;" x="174.245911" xlink:href="#m30d0843001" y="164.239421"/>
     <use style="fill:#1f77b4;stroke:#1f77b4;" x="175.122127" xlink:href="#m30d0843001" y="163.508675"/>
     <use style="fill:#1f77b4;stroke:#1f77b4;" x="175.974974" xlink:href="#m30d0843001" y="162.777928"/>
     <use style="fill:#1f77b4;stroke:#1f77b4;" x="176.805667" xlink:href="#m30d0843001" y="162.047181"/>
     <use style="fill:#1f77b4;stroke:#1f77b4;" x="177.615327" xlink:href="#m30d0843001" y="161.316435"/>
     <use style="fill:#1f77b4;stroke:#1f77b4;" x="178.404993" xlink:href="#m30d0843001" y="160.585688"/>
     <use style="fill:#1f77b4;stroke:#1f77b4;" x="179.17563" xlink:href="#m30d0843001" y="159.854941"/>
     <use style="fill:#1f77b4;stroke:#1f77b4;" x="179.928132" xlink:href="#m30d0843001" y="159.124195"/>
     <use style="fill:#1f77b4;stroke:#1f77b4;" x="180.663333" xlink:href="#m30d0843001" y="158.393448"/>
     <use style="fill:#1f77b4;stroke:#1f77b4;" x="181.382012" xlink:href="#m30d0843001" y="157.662702"/>
     <use style="fill:#1f77b4;stroke:#1f77b4;" x="182.084895" xlink:href="#m30d0843001" y="156.931955"/>
     <use style="fill:#1f77b4;stroke:#1f77b4;" x="182.77266" xlink:href="#m30d0843001" y="156.201208"/>
     <use style="fill:#1f77b4;stroke:#1f77b4;" x="183.445946" xlink:href="#m30d0843001" y="155.470462"/>
     <use style="fill:#1f77b4;stroke:#1f77b4;" x="184.105348" xlink:href="#m30d0843001" y="154.739715"/>
     <use style="fill:#1f77b4;stroke:#1f77b4;" x="184.751428" xlink:href="#m30d0843001" y="154.008968"/>
     <use style="fill:#1f77b4;stroke:#1f77b4;" x="185.384713" xlink:href="#m30d0843001" y="153.278222"/>
     <use style="fill:#1f77b4;stroke:#1f77b4;" x="186.005701" xlink:href="#m30d0843001" y="152.547475"/>
     <use style="fill:#1f77b4;stroke:#1f77b4;" x="186.614859" xlink:href="#m30d0843001" y="151.816728"/>
     <use style="fill:#1f77b4;stroke:#1f77b4;" x="187.212631" xlink:href="#m30d0843001" y="151.085982"/>
     <use style="fill:#1f77b4;stroke:#1f77b4;" x="187.799434" xlink:href="#m30d0843001" y="150.355235"/>
     <use style="fill:#1f77b4;stroke:#1f77b4;" x="188.375664" xlink:href="#m30d0843001" y="149.624488"/>
     <use style="fill:#1f77b4;stroke:#1f77b4;" x="188.941694" xlink:href="#m30d0843001" y="148.893742"/>
     <use style="fill:#1f77b4;stroke:#1f77b4;" x="189.49788" xlink:href="#m30d0843001" y="148.162995"/>
     <use style="fill:#1f77b4;stroke:#1f77b4;" x="190.044557" xlink:href="#m30d0843001" y="147.432248"/>
     <use style="fill:#1f77b4;stroke:#1f77b4;" x="190.582047" xlink:href="#m30d0843001" y="146.701502"/>
     <use style="fill:#1f77b4;stroke:#1f77b4;" x="191.110651" xlink:href="#m30d0843001" y="145.970755"/>
     <use style="fill:#1f77b4;stroke:#1f77b4;" x="191.630661" xlink:href="#m30d0843001" y="145.240009"/>
     <use style="fill:#1f77b4;stroke:#1f77b4;" x="192.14235" xlink:href="#m30d0843001" y="144.509262"/>
     <use style="fill:#1f77b4;stroke:#1f77b4;" x="192.64598" xlink:href="#m30d0843001" y="143.778515"/>
     <use style="fill:#1f77b4;stroke:#1f77b4;" x="193.141802" xlink:href="#m30d0843001" y="143.047769"/>
     <use style="fill:#1f77b4;stroke:#1f77b4;" x="193.630053" xlink:href="#m30d0843001" y="142.317022"/>
     <use style="fill:#1f77b4;stroke:#1f77b4;" x="194.110963" xlink:href="#m30d0843001" y="141.586275"/>
     <use style="fill:#1f77b4;stroke:#1f77b4;" x="194.584747" xlink:href="#m30d0843001" y="140.855529"/>
     <use style="fill:#1f77b4;stroke:#1f77b4;" x="195.051615" xlink:href="#m30d0843001" y="140.124782"/>
     <use style="fill:#1f77b4;stroke:#1f77b4;" x="195.511765" xlink:href="#m30d0843001" y="139.394035"/>
     <use style="fill:#1f77b4;stroke:#1f77b4;" x="195.965387" xlink:href="#m30d0843001" y="138.663289"/>
     <use style="fill:#1f77b4;stroke:#1f77b4;" x="196.412666" xlink:href="#m30d0843001" y="137.932542"/>
     <use style="fill:#1f77b4;stroke:#1f77b4;" x="196.853774" xlink:href="#m30d0843001" y="137.201795"/>
     <use style="fill:#1f77b4;stroke:#1f77b4;" x="197.288881" xlink:href="#m30d0843001" y="136.471049"/>
     <use style="fill:#1f77b4;stroke:#1f77b4;" x="197.718148" xlink:href="#m30d0843001" y="135.740302"/>
     <use style="fill:#1f77b4;stroke:#1f77b4;" x="198.141728" xlink:href="#m30d0843001" y="135.009556"/>
     <use style="fill:#1f77b4;stroke:#1f77b4;" x="198.559772" xlink:href="#m30d0843001" y="134.278809"/>
     <use style="fill:#1f77b4;stroke:#1f77b4;" x="198.972421" xlink:href="#m30d0843001" y="133.548062"/>
     <use style="fill:#1f77b4;stroke:#1f77b4;" x="199.379813" xlink:href="#m30d0843001" y="132.817316"/>
     <use style="fill:#1f77b4;stroke:#1f77b4;" x="199.782081" xlink:href="#m30d0843001" y="132.086569"/>
     <use style="fill:#1f77b4;stroke:#1f77b4;" x="200.179351" xlink:href="#m30d0843001" y="131.355822"/>
     <use style="fill:#1f77b4;stroke:#1f77b4;" x="200.571747" xlink:href="#m30d0843001" y="130.625076"/>
     <use style="fill:#1f77b4;stroke:#1f77b4;" x="200.959387" xlink:href="#m30d0843001" y="129.894329"/>
     <use style="fill:#1f77b4;stroke:#1f77b4;" x="201.342384" xlink:href="#m30d0843001" y="129.163582"/>
     <use style="fill:#1f77b4;stroke:#1f77b4;" x="201.720848" xlink:href="#m30d0843001" y="128.432836"/>
     <use style="fill:#1f77b4;stroke:#1f77b4;" x="202.094886" xlink:href="#m30d0843001" y="127.702089"/>
     <use style="fill:#1f77b4;stroke:#1f77b4;" x="202.4646" xlink:href="#m30d0843001" y="126.971342"/>
     <use style="fill:#1f77b4;stroke:#1f77b4;" x="202.830088" xlink:href="#m30d0843001" y="126.240596"/>
     <use style="fill:#1f77b4;stroke:#1f77b4;" x="203.191446" xlink:href="#m30d0843001" y="125.509849"/>
     <use style="fill:#1f77b4;stroke:#1f77b4;" x="203.548767" xlink:href="#m30d0843001" y="124.779102"/>
     <use style="fill:#1f77b4;stroke:#1f77b4;" x="203.902139" xlink:href="#m30d0843001" y="124.048356"/>
     <use style="fill:#1f77b4;stroke:#1f77b4;" x="204.251649" xlink:href="#m30d0843001" y="123.317609"/>
     <use style="fill:#1f77b4;stroke:#1f77b4;" x="204.597381" xlink:href="#m30d0843001" y="122.586863"/>
     <use style="fill:#1f77b4;stroke:#1f77b4;" x="204.939415" xlink:href="#m30d0843001" y="121.856116"/>
     <use style="fill:#1f77b4;stroke:#1f77b4;" x="205.277829" xlink:href="#m30d0843001" y="121.125369"/>
     <use style="fill:#1f77b4;stroke:#1f77b4;" x="205.6127" xlink:href="#m30d0843001" y="120.394623"/>
     <use style="fill:#1f77b4;stroke:#1f77b4;" x="205.9441" xlink:href="#m30d0843001" y="119.663876"/>
     <use style="fill:#1f77b4;stroke:#1f77b4;" x="206.272102" xlink:href="#m30d0843001" y="118.933129"/>
     <use style="fill:#1f77b4;stroke:#1f77b4;" x="206.596773" xlink:href="#m30d0843001" y="118.202383"/>
    </g>
   </g>
   <g id="matplotlib.axis_7">
    <g id="xtick_5">
     <g id="line2d_26">
      <g>
       <use style="stroke:#000000;stroke-width:0.5;" x="133.281818" xlink:href="#ma42970f5bb" y="194.4"/>
      </g>
     </g>
     <g id="line2d_27">
      <g>
       <use style="stroke:#000000;stroke-width:0.5;" x="133.281818" xlink:href="#me9add61087" y="114.573913"/>
      </g>
     </g>
     <g id="text_15">
      <!-- $\mathdefault{10^{0}}$ -->
      <g transform="translate(125.431818 208.7125)scale(0.1 -0.1)">
       <use transform="translate(0 0.99375)" xlink:href="#ArialMT-31"/>
       <use transform="translate(55.615234 0.99375)" xlink:href="#ArialMT-30"/>
       <use transform="translate(112.972813 70.6875)scale(0.7)" xlink:href="#ArialMT-30"/>
      </g>
     </g>
    </g>
    <g id="xtick_6">
     <g id="line2d_28">
      <g>
       <use style="stroke:#000000;stroke-width:0.5;" x="206.918182" xlink:href="#ma42970f5bb" y="194.4"/>
      </g>
     </g>
     <g id="line2d_29">
      <g>
       <use style="stroke:#000000;stroke-width:0.5;" x="206.918182" xlink:href="#me9add61087" y="114.573913"/>
      </g>
     </g>
     <g id="text_16">
      <!-- $\mathdefault{10^{1}}$ -->
      <g transform="translate(199.068182 208.7125)scale(0.1 -0.1)">
       <use transform="translate(0 0.99375)" xlink:href="#ArialMT-31"/>
       <use transform="translate(55.615234 0.99375)" xlink:href="#ArialMT-30"/>
       <use transform="translate(112.972813 70.6875)scale(0.7)" xlink:href="#ArialMT-31"/>
      </g>
     </g>
    </g>
    <g id="xtick_7">
     <g id="line2d_30">
      <defs>
       <path d="M 0 0 
L 0 -2 
" id="mf5b5b0064e" style="stroke:#000000;stroke-width:0.5;"/>
      </defs>
      <g>
       <use style="stroke:#000000;stroke-width:0.5;" x="129.912403" xlink:href="#mf5b5b0064e" y="194.4"/>
      </g>
     </g>
     <g id="line2d_31">
      <defs>
       <path d="M 0 0 
L 0 2 
" id="m5b6fd0c592" style="stroke:#000000;stroke-width:0.5;"/>
      </defs>
      <g>
       <use style="stroke:#000000;stroke-width:0.5;" x="129.912403" xlink:href="#m5b6fd0c592" y="114.573913"/>
      </g>
     </g>
    </g>
    <g id="xtick_8">
     <g id="line2d_32">
      <g>
       <use style="stroke:#000000;stroke-width:0.5;" x="155.448572" xlink:href="#mf5b5b0064e" y="194.4"/>
      </g>
     </g>
     <g id="line2d_33">
      <g>
       <use style="stroke:#000000;stroke-width:0.5;" x="155.448572" xlink:href="#m5b6fd0c592" y="114.573913"/>
      </g>
     </g>
    </g>
    <g id="xtick_9">
     <g id="line2d_34">
      <g>
       <use style="stroke:#000000;stroke-width:0.5;" x="168.415292" xlink:href="#mf5b5b0064e" y="194.4"/>
      </g>
     </g>
     <g id="line2d_35">
      <g>
       <use style="stroke:#000000;stroke-width:0.5;" x="168.415292" xlink:href="#m5b6fd0c592" y="114.573913"/>
      </g>
     </g>
    </g>
    <g id="xtick_10">
     <g id="line2d_36">
      <g>
       <use style="stroke:#000000;stroke-width:0.5;" x="177.615327" xlink:href="#mf5b5b0064e" y="194.4"/>
      </g>
     </g>
     <g id="line2d_37">
      <g>
       <use style="stroke:#000000;stroke-width:0.5;" x="177.615327" xlink:href="#m5b6fd0c592" y="114.573913"/>
      </g>
     </g>
    </g>
    <g id="xtick_11">
     <g id="line2d_38">
      <g>
       <use style="stroke:#000000;stroke-width:0.5;" x="184.751428" xlink:href="#mf5b5b0064e" y="194.4"/>
      </g>
     </g>
     <g id="line2d_39">
      <g>
       <use style="stroke:#000000;stroke-width:0.5;" x="184.751428" xlink:href="#m5b6fd0c592" y="114.573913"/>
      </g>
     </g>
    </g>
    <g id="xtick_12">
     <g id="line2d_40">
      <g>
       <use style="stroke:#000000;stroke-width:0.5;" x="190.582047" xlink:href="#mf5b5b0064e" y="194.4"/>
      </g>
     </g>
     <g id="line2d_41">
      <g>
       <use style="stroke:#000000;stroke-width:0.5;" x="190.582047" xlink:href="#m5b6fd0c592" y="114.573913"/>
      </g>
     </g>
    </g>
    <g id="xtick_13">
     <g id="line2d_42">
      <g>
       <use style="stroke:#000000;stroke-width:0.5;" x="195.511765" xlink:href="#mf5b5b0064e" y="194.4"/>
      </g>
     </g>
     <g id="line2d_43">
      <g>
       <use style="stroke:#000000;stroke-width:0.5;" x="195.511765" xlink:href="#m5b6fd0c592" y="114.573913"/>
      </g>
     </g>
    </g>
    <g id="xtick_14">
     <g id="line2d_44">
      <g>
       <use style="stroke:#000000;stroke-width:0.5;" x="199.782081" xlink:href="#mf5b5b0064e" y="194.4"/>
      </g>
     </g>
     <g id="line2d_45">
      <g>
       <use style="stroke:#000000;stroke-width:0.5;" x="199.782081" xlink:href="#m5b6fd0c592" y="114.573913"/>
      </g>
     </g>
    </g>
    <g id="xtick_15">
     <g id="line2d_46">
      <g>
       <use style="stroke:#000000;stroke-width:0.5;" x="203.548767" xlink:href="#mf5b5b0064e" y="194.4"/>
      </g>
     </g>
     <g id="line2d_47">
      <g>
       <use style="stroke:#000000;stroke-width:0.5;" x="203.548767" xlink:href="#m5b6fd0c592" y="114.573913"/>
      </g>
     </g>
    </g>
   </g>
   <g id="matplotlib.axis_8">
    <g id="ytick_8">
     <g id="line2d_48">
      <g>
       <use style="stroke:#000000;stroke-width:0.5;" x="129.6" xlink:href="#m6f56c061e2" y="173.720237"/>
      </g>
     </g>
     <g id="line2d_49">
      <g>
       <use style="stroke:#000000;stroke-width:0.5;" x="210.6" xlink:href="#m24d1490d90" y="173.720237"/>
      </g>
     </g>
     <g id="text_17">
      <!-- $\mathdefault{10^{1}}$ -->
      <g transform="translate(109.9 178.876487)scale(0.1 -0.1)">
       <use transform="translate(0 0.99375)" xlink:href="#ArialMT-31"/>
       <use transform="translate(55.615234 0.99375)" xlink:href="#ArialMT-30"/>
       <use transform="translate(112.972813 70.6875)scale(0.7)" xlink:href="#ArialMT-31"/>
      </g>
     </g>
    </g>
    <g id="ytick_9">
     <g id="line2d_50">
      <g>
       <use style="stroke:#000000;stroke-width:0.5;" x="129.6" xlink:href="#m6f56c061e2" y="140.068111"/>
      </g>
     </g>
     <g id="line2d_51">
      <g>
       <use style="stroke:#000000;stroke-width:0.5;" x="210.6" xlink:href="#m24d1490d90" y="140.068111"/>
      </g>
     </g>
     <g id="text_18">
      <!-- $\mathdefault{10^{3}}$ -->
      <g transform="translate(109.9 145.224361)scale(0.1 -0.1)">
       <use transform="translate(0 0.99375)" xlink:href="#ArialMT-31"/>
       <use transform="translate(55.615234 0.99375)" xlink:href="#ArialMT-30"/>
       <use transform="translate(112.972813 70.6875)scale(0.7)" xlink:href="#ArialMT-33"/>
      </g>
     </g>
    </g>
   </g>
   <g id="patch_18">
    <path d="M 129.6 194.4 
L 129.6 114.573913 
" style="fill:none;stroke:#000000;stroke-linecap:square;stroke-linejoin:miter;stroke-width:0.8;"/>
   </g>
   <g id="patch_19">
    <path d="M 210.6 194.4 
L 210.6 114.573913 
" style="fill:none;stroke:#000000;stroke-linecap:square;stroke-linejoin:miter;stroke-width:0.8;"/>
   </g>
   <g id="patch_20">
    <path d="M 129.6 194.4 
L 210.6 194.4 
" style="fill:none;stroke:#000000;stroke-linecap:square;stroke-linejoin:miter;stroke-width:0.8;"/>
   </g>
   <g id="patch_21">
    <path d="M 129.6 114.573913 
L 210.6 114.573913 
" style="fill:none;stroke:#000000;stroke-linecap:square;stroke-linejoin:miter;stroke-width:0.8;"/>
   </g>
   <g id="text_19">
    <!-- Scatter with loglog axes -->
    <defs>
     <path d="M 4.5 23 
L 13.421875 23.78125 
Q 14.0625 18.40625 16.375 14.96875 
Q 18.703125 11.53125 23.578125 9.40625 
Q 28.46875 7.28125 34.578125 7.28125 
Q 39.984375 7.28125 44.140625 8.890625 
Q 48.296875 10.5 50.3125 13.296875 
Q 52.34375 16.109375 52.34375 19.4375 
Q 52.34375 22.796875 50.390625 25.3125 
Q 48.4375 27.828125 43.953125 29.546875 
Q 41.0625 30.671875 31.203125 33.03125 
Q 21.34375 35.40625 17.390625 37.5 
Q 12.25 40.1875 9.734375 44.15625 
Q 7.234375 48.140625 7.234375 53.078125 
Q 7.234375 58.5 10.296875 63.203125 
Q 13.375 67.921875 19.28125 70.359375 
Q 25.203125 72.796875 32.421875 72.796875 
Q 40.375 72.796875 46.453125 70.234375 
Q 52.546875 67.671875 55.8125 62.6875 
Q 59.078125 57.71875 59.328125 51.421875 
L 50.25 50.734375 
Q 49.515625 57.515625 45.28125 60.984375 
Q 41.0625 64.453125 32.8125 64.453125 
Q 24.21875 64.453125 20.28125 61.296875 
Q 16.359375 58.15625 16.359375 53.71875 
Q 16.359375 49.859375 19.140625 47.359375 
Q 21.875 44.875 33.421875 42.265625 
Q 44.96875 39.65625 49.265625 37.703125 
Q 55.515625 34.8125 58.484375 30.390625 
Q 61.46875 25.984375 61.46875 20.21875 
Q 61.46875 14.5 58.203125 9.4375 
Q 54.9375 4.390625 48.796875 1.578125 
Q 42.671875 -1.21875 35.015625 -1.21875 
Q 25.296875 -1.21875 18.71875 1.609375 
Q 12.15625 4.4375 8.421875 10.125 
Q 4.6875 15.828125 4.5 23 
z
" id="ArialMT-53"/>
     <path d="M 40.4375 19 
L 49.078125 17.875 
Q 47.65625 8.9375 41.8125 3.875 
Q 35.984375 -1.171875 27.484375 -1.171875 
Q 16.84375 -1.171875 10.375 5.78125 
Q 3.90625 12.75 3.90625 25.734375 
Q 3.90625 34.125 6.6875 40.421875 
Q 9.46875 46.734375 15.15625 49.875 
Q 20.84375 53.03125 27.546875 53.03125 
Q 35.984375 53.03125 41.359375 48.75 
Q 46.734375 44.484375 48.25 36.625 
L 39.703125 35.296875 
Q 38.484375 40.53125 35.375 43.15625 
Q 32.28125 45.796875 27.875 45.796875 
Q 21.234375 45.796875 17.078125 41.03125 
Q 12.9375 36.28125 12.9375 25.984375 
Q 12.9375 15.53125 16.9375 10.796875 
Q 20.953125 6.0625 27.390625 6.0625 
Q 32.5625 6.0625 36.03125 9.234375 
Q 39.5 12.40625 40.4375 19 
z
" id="ArialMT-63"/>
     <path d="M 40.4375 6.390625 
Q 35.546875 2.25 31.03125 0.53125 
Q 26.515625 -1.171875 21.34375 -1.171875 
Q 12.796875 -1.171875 8.203125 3 
Q 3.609375 7.171875 3.609375 13.671875 
Q 3.609375 17.484375 5.34375 20.625 
Q 7.078125 23.78125 9.890625 25.6875 
Q 12.703125 27.59375 16.21875 28.5625 
Q 18.796875 29.25 24.03125 29.890625 
Q 34.671875 31.15625 39.703125 32.90625 
Q 39.75 34.71875 39.75 35.203125 
Q 39.75 40.578125 37.25 42.78125 
Q 33.890625 45.75 27.25 45.75 
Q 21.046875 45.75 18.09375 43.578125 
Q 15.140625 41.40625 13.71875 35.890625 
L 5.125 37.0625 
Q 6.296875 42.578125 8.984375 45.96875 
Q 11.671875 49.359375 16.75 51.1875 
Q 21.828125 53.03125 28.515625 53.03125 
Q 35.15625 53.03125 39.296875 51.46875 
Q 43.453125 49.90625 45.40625 47.53125 
Q 47.359375 45.171875 48.140625 41.546875 
Q 48.578125 39.3125 48.578125 33.453125 
L 48.578125 21.734375 
Q 48.578125 9.46875 49.140625 6.21875 
Q 49.703125 2.984375 51.375 0 
L 42.1875 0 
Q 40.828125 2.734375 40.4375 6.390625 
z
M 39.703125 26.03125 
Q 34.90625 24.078125 25.34375 22.703125 
Q 19.921875 21.921875 17.671875 20.9375 
Q 15.4375 19.96875 14.203125 18.09375 
Q 12.984375 16.21875 12.984375 13.921875 
Q 12.984375 10.40625 15.640625 8.0625 
Q 18.3125 5.71875 23.4375 5.71875 
Q 28.515625 5.71875 32.46875 7.9375 
Q 36.421875 10.15625 38.28125 14.015625 
Q 39.703125 17 39.703125 22.796875 
z
" id="ArialMT-61"/>
     <path d="M 25.78125 7.859375 
L 27.046875 0.09375 
Q 23.34375 -0.6875 20.40625 -0.6875 
Q 15.625 -0.6875 12.984375 0.828125 
Q 10.359375 2.34375 9.28125 4.8125 
Q 8.203125 7.28125 8.203125 15.1875 
L 8.203125 45.015625 
L 1.765625 45.015625 
L 1.765625 51.859375 
L 8.203125 51.859375 
L 8.203125 64.703125 
L 16.9375 69.96875 
L 16.9375 51.859375 
L 25.78125 51.859375 
L 25.78125 45.015625 
L 16.9375 45.015625 
L 16.9375 14.703125 
Q 16.9375 10.9375 17.40625 9.859375 
Q 17.875 8.796875 18.921875 8.15625 
Q 19.96875 7.515625 21.921875 7.515625 
Q 23.390625 7.515625 25.78125 7.859375 
z
" id="ArialMT-74"/>
     <path d="M 6.5 0 
L 6.5 51.859375 
L 14.40625 51.859375 
L 14.40625 44 
Q 17.4375 49.515625 20 51.265625 
Q 22.5625 53.03125 25.640625 53.03125 
Q 30.078125 53.03125 34.671875 50.203125 
L 31.640625 42.046875 
Q 28.421875 43.953125 25.203125 43.953125 
Q 22.3125 43.953125 20.015625 42.21875 
Q 17.71875 40.484375 16.75 37.40625 
Q 15.28125 32.71875 15.28125 27.15625 
L 15.28125 0 
z
" id="ArialMT-72"/>
     <path id="ArialMT-20"/>
     <path d="M 16.15625 0 
L 0.296875 51.859375 
L 9.375 51.859375 
L 17.625 21.921875 
L 20.703125 10.796875 
Q 20.90625 11.625 23.390625 21.484375 
L 31.640625 51.859375 
L 40.671875 51.859375 
L 48.4375 21.78125 
L 51.03125 11.859375 
L 54 21.875 
L 62.890625 51.859375 
L 71.4375 51.859375 
L 55.21875 0 
L 46.09375 0 
L 37.84375 31.0625 
L 35.84375 39.890625 
L 25.34375 0 
z
" id="ArialMT-77"/>
     <path d="M 6.59375 0 
L 6.59375 71.578125 
L 15.375 71.578125 
L 15.375 45.90625 
Q 21.53125 53.03125 30.90625 53.03125 
Q 36.671875 53.03125 40.921875 50.75 
Q 45.171875 48.484375 47 44.484375 
Q 48.828125 40.484375 48.828125 32.859375 
L 48.828125 0 
L 40.046875 0 
L 40.046875 32.859375 
Q 40.046875 39.453125 37.1875 42.453125 
Q 34.328125 45.453125 29.109375 45.453125 
Q 25.203125 45.453125 21.75 43.421875 
Q 18.3125 41.40625 16.84375 37.9375 
Q 15.375 34.46875 15.375 28.375 
L 15.375 0 
z
" id="ArialMT-68"/>
    </defs>
    <g transform="translate(106.737188 108.573913)scale(0.12 -0.12)">
     <use xlink:href="#ArialMT-53"/>
     <use x="66.699219" xlink:href="#ArialMT-63"/>
     <use x="116.699219" xlink:href="#ArialMT-61"/>
     <use x="172.314453" xlink:href="#ArialMT-74"/>
     <use x="200.097656" xlink:href="#ArialMT-74"/>
     <use x="227.880859" xlink:href="#ArialMT-65"/>
     <use x="283.496094" xlink:href="#ArialMT-72"/>
     <use x="316.796875" xlink:href="#ArialMT-20"/>
     <use x="344.580078" xlink:href="#ArialMT-77"/>
     <use x="416.796875" xlink:href="#ArialMT-69"/>
     <use x="439.013672" xlink:href="#ArialMT-74"/>
     <use x="466.796875" xlink:href="#ArialMT-68"/>
     <use x="522.412109" xlink:href="#ArialMT-20"/>
     <use x="550.195312" xlink:href="#ArialMT-6c"/>
     <use x="572.412109" xlink:href="#ArialMT-6f"/>
     <use x="628.027344" xlink:href="#ArialMT-67"/>
     <use x="683.642578" xlink:href="#ArialMT-6c"/>
     <use x="705.859375" xlink:href="#ArialMT-6f"/>
     <use x="761.474609" xlink:href="#ArialMT-67"/>
     <use x="817.089844" xlink:href="#ArialMT-20"/>
     <use x="844.873047" xlink:href="#ArialMT-61"/>
     <use x="900.488281" xlink:href="#ArialMT-78"/>
     <use x="950.488281" xlink:href="#ArialMT-65"/>
     <use x="1006.103516" xlink:href="#ArialMT-73"/>
    </g>
   </g>
  </g>
 </g>
 <defs>
  <clipPath id="p2e822e1fac">
   <rect height="79.826087" width="81" x="16.2" y="10.8"/>
  </clipPath>
  <clipPath id="p688b2a0bcc">
   <rect height="79.826087" width="81" x="129.6" y="10.8"/>
  </clipPath>
  <clipPath id="p924157e620">
   <rect height="79.826087" width="81" x="16.2" y="114.573913"/>
  </clipPath>
  <clipPath id="p22ae807bea">
   <rect height="79.826087" width="81" x="129.6" y="114.573913"/>
  </clipPath>
 </defs>
</svg>
